<svg id="logo" xmlns="http://www.w3.org/2000/svg" xmlns:xlink="http://www.w3.org/1999/xlink" viewBox="0 0 143.19 35.9"><defs><style>.cls-1{fill:#fff;}.cls-2{mask:url(#mask);}.cls-3{filter:url(#luminosity-noclip);}</style><filter id="luminosity-noclip" x="52.37" y="-8762.45" width="90.83" height="32766" filterUnits="userSpaceOnUse" color-interpolation-filters="sRGB"><feFlood flood-color="#fff" result="bg"/><feBlend in="SourceGraphic" in2="bg"/></filter><mask id="mask" x="52.37" y="-8762.45" width="90.83" height="32766" maskUnits="userSpaceOnUse"><g class="cls-3"/></mask></defs><path class="cls-1" d="M41.35,22,37.09,19.5a1.4,1.4,0,1,0-1.4,2.42l2.16,1.25L21,32.89,4.2,23.17l6.24-3.6,4.39,2.53a12.37,12.37,0,0,0,12.38,0l14.14-8.16a1.4,1.4,0,0,0,0-2.42L21.72.19a1.4,1.4,0,0,0-1.4,0L.7,11.52A1.4,1.4,0,0,0,0,12.73,1.42,1.42,0,0,0,.7,14l6.94,4L.7,22A1.4,1.4,0,0,0,0,23.17a1.42,1.42,0,0,0,.7,1.22L20.32,35.71a1.37,1.37,0,0,0,.7.19,1.32,1.32,0,0,0,.7-.19L41.35,24.38a1.4,1.4,0,0,0,0-2.42ZM25.81,19.68a9.61,9.61,0,0,1-9.58,0l-3-1.73,3-1.73a9.64,9.64,0,0,1,9.58,0l3,1.73ZM4.2,12.73,21,3l16.83,9.71-6.24,3.6-4.4-2.53a12.39,12.39,0,0,0-12.38,0l-4.39,2.54Z"/><g class="cls-2"><path class="cls-1" d="M52.37,10.31V6.12h3.72v4.19Zm0,18.91V12.51h3.72V29.22Z"/><path class="cls-1" d="M67.62,30a10.77,10.77,0,0,1-4.2-.82,9.63,9.63,0,0,1-3.3-2.27,8.55,8.55,0,0,1-2-3.3l3.35-1.52A6.72,6.72,0,0,0,64,25.4a6.2,6.2,0,0,0,3.64,1.15,5.19,5.19,0,0,0,3.11-.85,2.56,2.56,0,0,0,1.17-2.13,2.46,2.46,0,0,0-.72-1.86,5.36,5.36,0,0,0-2.07-1.11l-4.53-1.4a8.77,8.77,0,0,1-4.26-2.53,5.8,5.8,0,0,1-1.41-3.89,6,6,0,0,1,1-3.45A6.76,6.76,0,0,1,62.7,7a9.62,9.62,0,0,1,4.14-.84,10,10,0,0,1,4,.76,9.27,9.27,0,0,1,3,2.05,7.93,7.93,0,0,1,1.85,2.92l-3.38,1.56a5.52,5.52,0,0,0-2-2.84,5.75,5.75,0,0,0-3.41-1,4.72,4.72,0,0,0-2.93.85,2.64,2.64,0,0,0-1.1,2.16c0,1.44.95,2.46,2.86,3L70.07,17a9.87,9.87,0,0,1,4.31,2.45,5.42,5.42,0,0,1,1.45,3.87,6,6,0,0,1-1,3.52,6.85,6.85,0,0,1-2.88,2.34A10.26,10.26,0,0,1,67.62,30Z"/><path class="cls-1" d="M77.85,29.22V12.51h3.5v2a4.33,4.33,0,0,1,1.83-1.79,5.54,5.54,0,0,1,2.67-.62,6.22,6.22,0,0,1,3,.72,5.56,5.56,0,0,1,2.11,2,5.45,5.45,0,0,1,2.11-2,6.32,6.32,0,0,1,3.1-.74,5.87,5.87,0,0,1,3.07.79,5.67,5.67,0,0,1,2.11,2.18,6.68,6.68,0,0,1,.77,3.26V29.22H98.4V19.3a3.91,3.91,0,0,0-.9-2.75,3.38,3.38,0,0,0-4.76,0,3.87,3.87,0,0,0-.91,2.73v9.92H88.11V19.3a3.91,3.91,0,0,0-.9-2.75,3.1,3.1,0,0,0-2.39-1,3,3,0,0,0-2.35,1,3.91,3.91,0,0,0-.9,2.73v9.92Z"/><path class="cls-1" d="M110.24,29.59a7.46,7.46,0,0,1-3.22-.65,5.14,5.14,0,0,1-2.11-1.77,4.43,4.43,0,0,1-.74-2.54,3.94,3.94,0,0,1,1.39-3.09,8.74,8.74,0,0,1,3.94-1.78L115,18.58v-.52a2.28,2.28,0,0,0-.87-1.86,3.45,3.45,0,0,0-2.27-.72,4.09,4.09,0,0,0-2.35.7A4,4,0,0,0,108,18.06l-3.22-1.62a6.17,6.17,0,0,1,2.65-3.1,8.19,8.19,0,0,1,4.41-1.2,7.9,7.9,0,0,1,3.58.76A5.86,5.86,0,0,1,117.84,15a5.49,5.49,0,0,1,.87,3.07V29.22H115.2V27.36A6.2,6.2,0,0,1,110.24,29.59Zm-2.2-5a1.79,1.79,0,0,0,.71,1.5,3.14,3.14,0,0,0,1.93.54,4.49,4.49,0,0,0,2.21-.54,4,4,0,0,0,2.1-3.61V21.37l-4.75,1.09a3.18,3.18,0,0,0-1.61.79A1.83,1.83,0,0,0,108,24.6Z"/><path class="cls-1" d="M121.37,29.22V12.51h3.5v2.32a4,4,0,0,1,1.82-1.93,5.94,5.94,0,0,1,2.71-.58H131v3.35h-2a3.76,3.76,0,0,0-2.77,1.07,4.09,4.09,0,0,0-1.07,3v9.46Z"/><path class="cls-1" d="M141.27,29.4a5.84,5.84,0,0,1-4.34-1.52,5.77,5.77,0,0,1-1.52-4.27V15.86h-3V12.51h.49a2.6,2.6,0,0,0,1.88-.65,2.52,2.52,0,0,0,.66-1.86V7.33h3.72v5.18h4v3.35h-4v7.75a3.75,3.75,0,0,0,.25,1.34,2.09,2.09,0,0,0,.88,1,3.52,3.52,0,0,0,1.82.39,7.37,7.37,0,0,0,1.11-.1v3a6.62,6.62,0,0,1-1,.12Z"/></g></svg>